<?xml version="1.0" encoding="us-ascii" standalone="no"?><svg xmlns="http://www.w3.org/2000/svg" xmlns:xlink="http://www.w3.org/1999/xlink" contentStyleType="text/css" height="288px" preserveAspectRatio="none" style="width:1440px;height:288px;background:#FFFFFF;" version="1.1" viewBox="0 0 1440 288" width="1440px" zoomAndPan="magnify"><defs/><g><g id="elem_Persona"><rect fill="#F1F1F1" height="39.0679" style="stroke:#181818;stroke-width:0.5;" width="68" x="916.33" y="7"/><text fill="#000000" font-family="sans-serif" font-size="14" lengthAdjust="spacing" textLength="54" x="923.33" y="23.9659">Persona</text><line style="stroke:#181818;stroke-width:0.5;" x1="917.33" x2="983.33" y1="30.0679" y2="30.0679"/></g><g id="elem_Edificio"><rect fill="#F1F1F1" height="39.0679" style="stroke:#181818;stroke-width:0.5;" width="63" x="534.83" y="125"/><text fill="#000000" font-family="sans-serif" font-size="14" lengthAdjust="spacing" textLength="49" x="541.83" y="141.9659">Edificio</text><line style="stroke:#181818;stroke-width:0.5;" x1="535.83" x2="596.83" y1="148.0679" y2="148.0679"/></g><g id="elem_Ascensor"><rect fill="#F1F1F1" height="39.0679" style="stroke:#181818;stroke-width:0.5;" width="75" x="580.83" y="243"/><text fill="#000000" font-family="sans-serif" font-size="14" lengthAdjust="spacing" textLength="61" x="587.83" y="259.9659">Ascensor</text><line style="stroke:#181818;stroke-width:0.5;" x1="581.83" x2="654.83" y1="266.0679" y2="266.0679"/></g><!--link Persona to Edificio--><g id="link_Persona_Edificio"><path codeLine="6" d="M916.16,26.75 C857.32,26.76 734.35,32.54 642.33,76 C618.07,87.45 599.8343,104.6318 585.7643,120.3318 " fill="none" id="Persona-to-Edificio" style="stroke:#181818;stroke-width:1.0;"/><polygon fill="#181818" points="581.76,124.8,590.7453,120.7672,585.097,121.0765,584.7877,115.4281,581.76,124.8" style="stroke:#181818;stroke-width:1.0;"/><text fill="#000000" font-family="sans-serif" font-size="13" lengthAdjust="spacing" textLength="174" x="643.33" y="90.897">llamarAscensor(plantaActual)</text></g><!--link Edificio to Persona--><g id="link_Edificio_Persona"><path codeLine="11" d="M597.84,140.58 C646.94,135.36 744.18,122.31 822.33,95 C858.02,82.52 890.8496,64.5012 916.0796,49.2012 " fill="none" id="Edificio-to-Persona" style="stroke:#181818;stroke-width:1.0;"/><polygon fill="#181818" points="921.21,46.09,911.4403,47.3365,916.9347,48.6826,915.5886,54.177,921.21,46.09" style="stroke:#181818;stroke-width:1.0;"/><text fill="#000000" font-family="sans-serif" font-size="13" lengthAdjust="spacing" textLength="153" x="867.33" y="90.897">notificaLlegadaAscensor()</text></g><!--link Edificio to Ascensor--><g id="link_Edificio_Ascensor"><path codeLine="7" d="M534.62,144.93 C415.67,143.31 6,142.73 70.33,213 C104.71,250.56 456.0707,259.1068 574.4607,260.9468 " fill="none" id="Edificio-to-Ascensor" style="stroke:#181818;stroke-width:1.0;"/><polygon fill="#181818" points="580.46,261.04,571.5232,256.9006,575.4606,260.9623,571.3989,264.8997,580.46,261.04" style="stroke:#181818;stroke-width:1.0;"/><text fill="#000000" font-family="sans-serif" font-size="13" lengthAdjust="spacing" textLength="110" x="71.33" y="208.897">informarPosicion()</text></g><!--link Ascensor to Edificio--><g id="link_Ascensor_Edificio"><path codeLine="8" d="M580.63,245.03 C567.65,237.31 554.58,226.73 547.33,213 C539.14,197.5 543.2875,183.3367 551.0075,169.3067 " fill="none" id="Ascensor-to-Edificio" style="stroke:#181818;stroke-width:1.0;"/><polygon fill="#181818" points="553.9,164.05,546.0567,170.0068,551.4896,168.4306,553.0657,173.8635,553.9,164.05" style="stroke:#181818;stroke-width:1.0;"/><text fill="#000000" font-family="sans-serif" font-size="13" lengthAdjust="spacing" textLength="95" x="548.33" y="208.897">posicionActual()</text></g><!--link Edificio to Ascensor--><g id="link_Edificio_Ascensor"><path codeLine="9" d="M534.56,146.55 C441.68,150.21 179.72,164.86 222.33,213 C245.88,239.61 480.2282,254.4157 574.5982,259.3657 " fill="none" id="Edificio-to-Ascensor-1" style="stroke:#181818;stroke-width:1.0;"/><polygon fill="#181818" points="580.59,259.68,571.8119,255.2141,575.5969,259.4181,571.3928,263.2031,580.59,259.68" style="stroke:#181818;stroke-width:1.0;"/><text fill="#000000" font-family="sans-serif" font-size="13" lengthAdjust="spacing" textLength="130" x="223.33" y="208.897">moverA(plantaActual)</text></g><!--link Ascensor to Edificio--><g id="link_Ascensor_Edificio"><path codeLine="10" d="M636.01,242.97 C646.99,229.12 657.41,209.93 648.33,194 C637.59,175.18 621.9178,165.2051 603.7578,157.7251 " fill="none" id="Ascensor-to-Edificio-1" style="stroke:#181818;stroke-width:1.0;"/><polygon fill="#181818" points="598.21,155.44,605.0083,162.5662,602.8332,157.3443,608.0551,155.1691,598.21,155.44" style="stroke:#181818;stroke-width:1.0;"/><text fill="#000000" font-family="sans-serif" font-size="13" lengthAdjust="spacing" textLength="108" x="653.33" y="208.897">confirmaLlegada()</text></g><!--link Ascensor to Edificio--><g id="link_Ascensor_Edificio"><path codeLine="13" d="M655.9,258.33 C710.84,252.23 803.18,235.57 770.33,194 C749.23,167.29 656.0681,154.3375 604.1681,148.9675 " fill="none" id="Ascensor-to-Edificio-2" style="stroke:#181818;stroke-width:1.0;"/><polygon fill="#181818" points="598.2,148.35,606.7405,153.255,603.1734,148.8646,607.5639,145.2975,598.2,148.35" style="stroke:#181818;stroke-width:1.0;"/><text fill="#000000" font-family="sans-serif" font-size="13" lengthAdjust="spacing" textLength="208" x="778.33" y="208.897">registrarMovimientoAscensor(this)</text></g><!--link Edificio to Ascensor--><g id="link_Edificio_Ascensor"><path codeLine="14" d="M534.69,148.65 C483.56,155 391.54,172.34 423.33,213 C442.5,237.53 523.7833,250.7103 574.8533,256.8803 " fill="none" id="Edificio-to-Ascensor-2" style="stroke:#181818;stroke-width:1.0;"/><polygon fill="#181818" points="580.81,257.6,572.3547,252.5494,575.8461,257.0003,571.3952,260.4916,580.81,257.6" style="stroke:#181818;stroke-width:1.0;"/><text fill="#000000" font-family="sans-serif" font-size="13" lengthAdjust="spacing" textLength="111" x="424.33" y="208.897">confirmaRegistro()</text></g><!--link Persona to Ascensor--><g id="link_Persona_Ascensor"><path codeLine="12" d="M984.72,39.37 C1001.35,47.05 1019.74,58.87 1029.33,76 C1052.25,116.97 1095.82,126.78 995.33,213 C944.99,256.18 747.29,261.4303 662.08,261.7103 " fill="none" id="Persona-to-Ascensor" style="stroke:#181818;stroke-width:1.0;"/><polygon fill="#181818" points="656.08,261.73,665.0931,265.7004,661.08,261.7136,665.0668,257.7004,656.08,261.73" style="stroke:#181818;stroke-width:1.0;"/><text fill="#000000" font-family="sans-serif" font-size="13" lengthAdjust="spacing" textLength="204" x="1059.33" y="149.897">seleccionarDestino(plantaDestino)</text></g><!--link Ascensor to Persona--><g id="link_Ascensor_Persona"><path codeLine="15" d="M655.93,262.14 C783.17,263.4 1193.97,259.89 1272.33,164 C1353.3,64.91 1088.705,36.8843 990.525,29.9243 " fill="none" id="Ascensor-to-Persona" style="stroke:#181818;stroke-width:1.0;"/><polygon fill="#181818" points="984.54,29.5,993.2346,34.1264,989.5275,29.8536,993.8003,26.1464,984.54,29.5" style="stroke:#181818;stroke-width:1.0;"/><text fill="#000000" font-family="sans-serif" font-size="13" lengthAdjust="spacing" textLength="145" x="1287.33" y="149.897">notificaLlegadaDestino()</text></g><!--SRC=[TP0n3i8m34Ntd29ZEt011gHAi864k859NJ1ARUI4dfz6RIAebD7n_p_lM-ulTD5UKOCm65d6Kqy3EP8yTy4X1r5ZLg7TxGv5PVVMUnX1iwnvU-08dOiVyAqfkcJAcjb4F8ZEjgk4jEQcDMMxoN-laYMogMUECg5s6u1QgXCUQ2OuUtn03zlOt7LlMM9wpyBIi_sxnmz6G8yk0OCUCKHYMP7MgSwa-A0G5VGY4us47ALy5vyKwjLpczkI8DjpLkjamjPy0G00]--></g></svg>