<?xml version="1.0" encoding="us-ascii" standalone="no"?><svg xmlns="http://www.w3.org/2000/svg" xmlns:xlink="http://www.w3.org/1999/xlink" contentStyleType="text/css" height="862px" preserveAspectRatio="none" style="width:489px;height:862px;background:#FFFFFF;" version="1.1" viewBox="0 0 489 862" width="489px" zoomAndPan="magnify"><defs/><g><!--class Universidad--><g id="elem_Universidad"><rect codeLine="2" fill="#F1F1F1" height="67.0679" id="Universidad" rx="2.5" ry="2.5" style="stroke:#181818;stroke-width:0.5;" width="128" x="144.5" y="7"/><ellipse cx="166.25" cy="23" fill="#ADD1B2" rx="11" ry="11" style="stroke:#181818;stroke-width:1.0;"/><path d="M165.7188,29.9219 Q163.9688,29.9219 162.8281,29.1875 Q161.7031,28.4375 161.1406,27.0938 Q160.5938,25.7344 160.5938,23.9375 Q160.5938,21.9063 161.25,20.4531 Q161.9063,19 163.1875,18.2188 Q164.4688,17.4375 166.3438,17.4375 Q167.2344,17.4375 167.9063,17.625 Q168.5781,17.7969 169.2656,18.1406 L168.4531,20.1563 Q167.8281,19.8438 167.2813,19.7188 Q166.75,19.5938 166.2656,19.5938 Q165.0938,19.5938 164.3906,20.125 Q163.6875,20.6563 163.3906,21.6094 Q163.0938,22.5625 163.0938,23.8281 Q163.0938,25.8438 163.8125,26.8125 Q164.5313,27.7656 166.125,27.7656 Q166.7188,27.7656 167.3438,27.6094 Q167.9688,27.4531 168.7969,27.0781 L168.7969,29.2969 Q168.0625,29.6094 167.2656,29.7656 Q166.4844,29.9219 165.7188,29.9219 Z " fill="#000000"/><text fill="#000000" font-family="sans-serif" font-size="14" lengthAdjust="spacing" textLength="81" x="181.75" y="28.432">Universidad</text><line style="stroke:#181818;stroke-width:0.5;" x1="145.5" x2="271.5" y1="39" y2="39"/><rect fill="none" height="6" style="stroke:#C82930;stroke-width:1.0;" width="6" x="152.5" y="51.034"/><text fill="#000000" font-family="sans-serif" font-size="14" lengthAdjust="spacing" textLength="102" x="164.5" y="57.9659">nombre: String</text><line style="stroke:#181818;stroke-width:0.5;" x1="145.5" x2="271.5" y1="66.0679" y2="66.0679"/></g><!--class Edificio--><g id="elem_Edificio"><rect codeLine="6" fill="#F1F1F1" height="181.4754" id="Edificio" rx="2.5" ry="2.5" style="stroke:#181818;stroke-width:0.5;" width="403" x="7" y="153"/><ellipse cx="179.75" cy="169" fill="#ADD1B2" rx="11" ry="11" style="stroke:#181818;stroke-width:1.0;"/><path d="M179.2188,175.9219 Q177.4688,175.9219 176.3281,175.1875 Q175.2031,174.4375 174.6406,173.0938 Q174.0938,171.7344 174.0938,169.9375 Q174.0938,167.9063 174.75,166.4531 Q175.4063,165 176.6875,164.2188 Q177.9688,163.4375 179.8438,163.4375 Q180.7344,163.4375 181.4063,163.625 Q182.0781,163.7969 182.7656,164.1406 L181.9531,166.1563 Q181.3281,165.8438 180.7813,165.7188 Q180.25,165.5938 179.7656,165.5938 Q178.5938,165.5938 177.8906,166.125 Q177.1875,166.6563 176.8906,167.6094 Q176.5938,168.5625 176.5938,169.8281 Q176.5938,171.8438 177.3125,172.8125 Q178.0313,173.7656 179.625,173.7656 Q180.2188,173.7656 180.8438,173.6094 Q181.4688,173.4531 182.2969,173.0781 L182.2969,175.2969 Q181.5625,175.6094 180.7656,175.7656 Q179.9844,175.9219 179.2188,175.9219 Z " fill="#000000"/><text fill="#000000" font-family="sans-serif" font-size="14" lengthAdjust="spacing" textLength="49" x="200.25" y="174.432">Edificio</text><line style="stroke:#181818;stroke-width:0.5;" x1="8" x2="409" y1="185" y2="185"/><rect fill="none" height="6" style="stroke:#C82930;stroke-width:1.0;" width="6" x="15" y="197.034"/><text fill="#000000" font-family="sans-serif" font-size="14" lengthAdjust="spacing" textLength="102" x="27" y="203.9659">nombre: String</text><rect fill="none" height="6" style="stroke:#C82930;stroke-width:1.0;" width="6" x="15" y="216.1019"/><text fill="#000000" font-family="sans-serif" font-size="14" lengthAdjust="spacing" textLength="128" x="27" y="223.0339">numeroPlantas: int</text><line style="stroke:#181818;stroke-width:0.5;" x1="8" x2="409" y1="231.1358" y2="231.1358"/><ellipse cx="18" cy="246.1698" fill="#84BE84" rx="3" ry="3" style="stroke:#038048;stroke-width:1.0;"/><text fill="#000000" font-family="sans-serif" font-size="14" lengthAdjust="spacing" textLength="283" x="27" y="250.1018">llamarAscensor(plantaActual: Planta): void</text><ellipse cx="18" cy="265.2377" fill="#84BE84" rx="3" ry="3" style="stroke:#038048;stroke-width:1.0;"/><text fill="#000000" font-family="sans-serif" font-size="14" lengthAdjust="spacing" textLength="295" x="27" y="269.1697">obtenerPosicion(ascensor: Ascensor): Planta</text><ellipse cx="18" cy="284.3056" fill="#84BE84" rx="3" ry="3" style="stroke:#038048;stroke-width:1.0;"/><text fill="#000000" font-family="sans-serif" font-size="14" lengthAdjust="spacing" textLength="377" x="27" y="288.2376">moverAscensor(ascensor: Ascensor, planta: Planta): void</text><ellipse cx="18" cy="303.3735" fill="#84BE84" rx="3" ry="3" style="stroke:#038048;stroke-width:1.0;"/><text fill="#000000" font-family="sans-serif" font-size="14" lengthAdjust="spacing" textLength="331" x="27" y="307.3055">notificarLlegadaAscensor(persona: Persona): void</text><ellipse cx="18" cy="322.4415" fill="#84BE84" rx="3" ry="3" style="stroke:#038048;stroke-width:1.0;"/><text fill="#000000" font-family="sans-serif" font-size="14" lengthAdjust="spacing" textLength="374" x="27" y="326.3734">confirmarRegistroMovimiento(ascensor: Ascensor): void</text></g><!--class Planta--><g id="elem_Planta"><rect codeLine="16" fill="#F1F1F1" height="86.1358" id="Planta" rx="2.5" ry="2.5" style="stroke:#181818;stroke-width:0.5;" width="121" x="25" y="489.5"/><ellipse cx="61.15" cy="505.5" fill="#ADD1B2" rx="11" ry="11" style="stroke:#181818;stroke-width:1.0;"/><path d="M60.6188,512.4219 Q58.8688,512.4219 57.7281,511.6875 Q56.6031,510.9375 56.0406,509.5938 Q55.4938,508.2344 55.4938,506.4375 Q55.4938,504.4063 56.15,502.9531 Q56.8063,501.5 58.0875,500.7188 Q59.3688,499.9375 61.2438,499.9375 Q62.1344,499.9375 62.8063,500.125 Q63.4781,500.2969 64.1656,500.6406 L63.3531,502.6563 Q62.7281,502.3438 62.1813,502.2188 Q61.65,502.0938 61.1656,502.0938 Q59.9938,502.0938 59.2906,502.625 Q58.5875,503.1563 58.2906,504.1094 Q57.9938,505.0625 57.9938,506.3281 Q57.9938,508.3438 58.7125,509.3125 Q59.4313,510.2656 61.025,510.2656 Q61.6188,510.2656 62.2438,510.1094 Q62.8688,509.9531 63.6969,509.5781 L63.6969,511.7969 Q62.9625,512.1094 62.1656,512.2656 Q61.3844,512.4219 60.6188,512.4219 Z " fill="#000000"/><text fill="#000000" font-family="sans-serif" font-size="14" lengthAdjust="spacing" textLength="42" x="79.85" y="510.932">Planta</text><line style="stroke:#181818;stroke-width:0.5;" x1="26" x2="145" y1="521.5" y2="521.5"/><rect fill="none" height="6" style="stroke:#C82930;stroke-width:1.0;" width="6" x="33" y="533.534"/><text fill="#000000" font-family="sans-serif" font-size="14" lengthAdjust="spacing" textLength="79" x="45" y="540.4659">numero: int</text><rect fill="none" height="6" style="stroke:#C82930;stroke-width:1.0;" width="6" x="33" y="552.6019"/><text fill="#000000" font-family="sans-serif" font-size="14" lengthAdjust="spacing" textLength="95" x="45" y="559.5339">capacidad: int</text><line style="stroke:#181818;stroke-width:0.5;" x1="26" x2="145" y1="567.6358" y2="567.6358"/></g><!--class Ascensor--><g id="elem_Ascensor"><rect codeLine="21" fill="#F1F1F1" height="238.6792" id="Ascensor" rx="2.5" ry="2.5" style="stroke:#181818;stroke-width:0.5;" width="301" x="181" y="413"/><ellipse cx="296.75" cy="429" fill="#ADD1B2" rx="11" ry="11" style="stroke:#181818;stroke-width:1.0;"/><path d="M296.2188,435.9219 Q294.4688,435.9219 293.3281,435.1875 Q292.2031,434.4375 291.6406,433.0938 Q291.0938,431.7344 291.0938,429.9375 Q291.0938,427.9063 291.75,426.4531 Q292.4063,425 293.6875,424.2188 Q294.9688,423.4375 296.8438,423.4375 Q297.7344,423.4375 298.4063,423.625 Q299.0781,423.7969 299.7656,424.1406 L298.9531,426.1563 Q298.3281,425.8438 297.7813,425.7188 Q297.25,425.5938 296.7656,425.5938 Q295.5938,425.5938 294.8906,426.125 Q294.1875,426.6563 293.8906,427.6094 Q293.5938,428.5625 293.5938,429.8281 Q293.5938,431.8438 294.3125,432.8125 Q295.0313,433.7656 296.625,433.7656 Q297.2188,433.7656 297.8438,433.6094 Q298.4688,433.4531 299.2969,433.0781 L299.2969,435.2969 Q298.5625,435.6094 297.7656,435.7656 Q296.9844,435.9219 296.2188,435.9219 Z " fill="#000000"/><text fill="#000000" font-family="sans-serif" font-size="14" lengthAdjust="spacing" textLength="61" x="317.25" y="434.432">Ascensor</text><line style="stroke:#181818;stroke-width:0.5;" x1="182" x2="481" y1="445" y2="445"/><rect fill="none" height="6" style="stroke:#C82930;stroke-width:1.0;" width="6" x="189" y="457.034"/><text fill="#000000" font-family="sans-serif" font-size="14" lengthAdjust="spacing" textLength="79" x="201" y="463.9659">numero: int</text><rect fill="none" height="6" style="stroke:#C82930;stroke-width:1.0;" width="6" x="189" y="476.1019"/><text fill="#000000" font-family="sans-serif" font-size="14" lengthAdjust="spacing" textLength="95" x="201" y="483.0339">capacidad: int</text><rect fill="none" height="6" style="stroke:#C82930;stroke-width:1.0;" width="6" x="189" y="495.1698"/><text fill="#000000" font-family="sans-serif" font-size="14" lengthAdjust="spacing" textLength="135" x="201" y="502.1018">plantaActual: Planta</text><line style="stroke:#181818;stroke-width:0.5;" x1="182" x2="481" y1="510.2038" y2="510.2038"/><ellipse cx="192" cy="525.2377" fill="#84BE84" rx="3" ry="3" style="stroke:#038048;stroke-width:1.0;"/><text fill="#000000" font-family="sans-serif" font-size="14" lengthAdjust="spacing" textLength="172" x="201" y="529.1697">informarPosicion(): Planta</text><ellipse cx="192" cy="544.3056" fill="#84BE84" rx="3" ry="3" style="stroke:#038048;stroke-width:1.0;"/><text fill="#000000" font-family="sans-serif" font-size="14" lengthAdjust="spacing" textLength="163" x="201" y="548.2376">confirmarLlegada(): void</text><ellipse cx="192" cy="563.3735" fill="#84BE84" rx="3" ry="3" style="stroke:#038048;stroke-width:1.0;"/><text fill="#000000" font-family="sans-serif" font-size="14" lengthAdjust="spacing" textLength="128" x="201" y="567.3055">abrirPuertas(): void</text><ellipse cx="192" cy="582.4415" fill="#84BE84" rx="3" ry="3" style="stroke:#038048;stroke-width:1.0;"/><text fill="#000000" font-family="sans-serif" font-size="14" lengthAdjust="spacing" textLength="136" x="201" y="586.3734">cerrarPuertas(): void</text><ellipse cx="192" cy="601.5094" fill="#84BE84" rx="3" ry="3" style="stroke:#038048;stroke-width:1.0;"/><text fill="#000000" font-family="sans-serif" font-size="14" lengthAdjust="spacing" textLength="188" x="201" y="605.4414">moverA(planta: Planta): void</text><ellipse cx="192" cy="620.5773" fill="#84BE84" rx="3" ry="3" style="stroke:#038048;stroke-width:1.0;"/><text fill="#000000" font-family="sans-serif" font-size="14" lengthAdjust="spacing" textLength="275" x="201" y="624.5093">registrarMovimiento(planta: Planta): void</text><ellipse cx="192" cy="639.6452" fill="#84BE84" rx="3" ry="3" style="stroke:#038048;stroke-width:1.0;"/><text fill="#000000" font-family="sans-serif" font-size="14" lengthAdjust="spacing" textLength="204" x="201" y="643.5772">notificarLlegadaDestino(): void</text></g><!--class Persona--><g id="elem_Persona"><rect codeLine="34" fill="#F1F1F1" height="124.2717" id="Persona" rx="2.5" ry="2.5" style="stroke:#181818;stroke-width:0.5;" width="290" x="27.5" y="731"/><ellipse cx="141.25" cy="747" fill="#ADD1B2" rx="11" ry="11" style="stroke:#181818;stroke-width:1.0;"/><path d="M140.7188,753.9219 Q138.9688,753.9219 137.8281,753.1875 Q136.7031,752.4375 136.1406,751.0938 Q135.5938,749.7344 135.5938,747.9375 Q135.5938,745.9063 136.25,744.4531 Q136.9063,743 138.1875,742.2188 Q139.4688,741.4375 141.3438,741.4375 Q142.2344,741.4375 142.9063,741.625 Q143.5781,741.7969 144.2656,742.1406 L143.4531,744.1563 Q142.8281,743.8438 142.2813,743.7188 Q141.75,743.5938 141.2656,743.5938 Q140.0938,743.5938 139.3906,744.125 Q138.6875,744.6563 138.3906,745.6094 Q138.0938,746.5625 138.0938,747.8281 Q138.0938,749.8438 138.8125,750.8125 Q139.5313,751.7656 141.125,751.7656 Q141.7188,751.7656 142.3438,751.6094 Q142.9688,751.4531 143.7969,751.0781 L143.7969,753.2969 Q143.0625,753.6094 142.2656,753.7656 Q141.4844,753.9219 140.7188,753.9219 Z " fill="#000000"/><text fill="#000000" font-family="sans-serif" font-size="14" lengthAdjust="spacing" textLength="54" x="161.75" y="752.432">Persona</text><line style="stroke:#181818;stroke-width:0.5;" x1="28.5" x2="316.5" y1="763" y2="763"/><rect fill="none" height="6" style="stroke:#C82930;stroke-width:1.0;" width="6" x="35.5" y="775.034"/><text fill="#000000" font-family="sans-serif" font-size="14" lengthAdjust="spacing" textLength="100" x="47.5" y="781.9659">destino: Planta</text><rect fill="none" height="6" style="stroke:#C82930;stroke-width:1.0;" width="6" x="35.5" y="794.1019"/><text fill="#000000" font-family="sans-serif" font-size="14" lengthAdjust="spacing" textLength="129" x="47.5" y="801.0339">tiempoEstancia: int</text><line style="stroke:#181818;stroke-width:0.5;" x1="28.5" x2="316.5" y1="809.1358" y2="809.1358"/><ellipse cx="38.5" cy="824.1698" fill="#84BE84" rx="3" ry="3" style="stroke:#038048;stroke-width:1.0;"/><text fill="#000000" font-family="sans-serif" font-size="14" lengthAdjust="spacing" textLength="208" x="47.5" y="828.1018">solicitarAperturaPuertas(): void</text><ellipse cx="38.5" cy="843.2377" fill="#84BE84" rx="3" ry="3" style="stroke:#038048;stroke-width:1.0;"/><text fill="#000000" font-family="sans-serif" font-size="14" lengthAdjust="spacing" textLength="264" x="47.5" y="847.1697">seleccionarDestino(planta: Planta): void</text></g><!--link Universidad to Edificio--><g id="link_Universidad_Edificio"><path codeLine="41" d="M208.5,74.24 C208.5,95.71 208.5,124.9 208.5,152.94 " fill="none" id="Universidad-Edificio" style="stroke:#181818;stroke-width:1.0;"/><text fill="#000000" font-family="sans-serif" font-size="13" lengthAdjust="spacing" textLength="52" x="209.5" y="118.897">contiene</text><text fill="#000000" font-family="sans-serif" font-size="13" lengthAdjust="spacing" textLength="7" x="200.8547" y="95.9838">1</text><text fill="#000000" font-family="sans-serif" font-size="13" lengthAdjust="spacing" textLength="20" x="187.6406" y="141.334">1..*</text></g><!--link Edificio to Planta--><g id="link_Edificio_Planta"><path codeLine="42" d="M170.09,334.13 C147.88,385.94 120.98,448.7 103.57,489.34 " fill="none" id="Edificio-Planta" style="stroke:#181818;stroke-width:1.0;"/><text fill="#000000" font-family="sans-serif" font-size="13" lengthAdjust="spacing" textLength="30" x="155.5" y="378.897">tiene</text><text fill="#000000" font-family="sans-serif" font-size="13" lengthAdjust="spacing" textLength="7" x="159.6193" y="356.2458">1</text><text fill="#000000" font-family="sans-serif" font-size="13" lengthAdjust="spacing" textLength="20" x="84.9066" y="477.728">1..*</text></g><!--link Edificio to Ascensor--><g id="link_Edificio_Ascensor"><path codeLine="43" d="M246.91,334.13 C257.59,359.05 269.36,386.5 280.63,412.8 " fill="none" id="Edificio-Ascensor" style="stroke:#181818;stroke-width:1.0;"/><text fill="#000000" font-family="sans-serif" font-size="13" lengthAdjust="spacing" textLength="50" x="266.5" y="378.897">controla</text><text fill="#000000" font-family="sans-serif" font-size="13" lengthAdjust="spacing" textLength="7" x="242.801" y="356.2458">1</text><text fill="#000000" font-family="sans-serif" font-size="13" lengthAdjust="spacing" textLength="20" x="256.5403" y="401.1181">1..*</text></g><!--link Planta to Persona--><g id="link_Planta_Persona"><path codeLine="44" d="M75.73,575.82 C69.75,610.75 66.03,660.92 82.5,701 C86.85,711.58 93.09,721.59 100.29,730.83 " fill="none" id="Planta-Persona" style="stroke:#181818;stroke-width:1.0;"/><text fill="#000000" font-family="sans-serif" font-size="13" lengthAdjust="spacing" textLength="45" x="83.5" y="696.897">alberga</text><text fill="#000000" font-family="sans-serif" font-size="13" lengthAdjust="spacing" textLength="7" x="66.698" y="597.6956">1</text><text fill="#000000" font-family="sans-serif" font-size="13" lengthAdjust="spacing" textLength="20" x="70.2707" y="719.1406">0..*</text></g><!--link Persona to Planta--><g id="link_Persona_Planta"><path codeLine="46" d="M151.83,730.59 C135.74,682.78 113.83,617.67 99.67,575.61 " fill="none" id="Persona-Planta" style="stroke:#181818;stroke-width:1.0;"/><polygon fill="#000000" points="142.9051,687.1142,143.0049,696.6242,148.5757,694.7493,142.9051,687.1142" style="stroke:#000000;stroke-width:1.0;"/><text fill="#000000" font-family="sans-serif" font-size="13" lengthAdjust="spacing" textLength="92" x="153.5" y="696.897">se mueve entre</text></g><!--link Ascensor to Persona--><g id="link_Ascensor_Persona"><path codeLine="45" d="M282.44,652.16 C273.91,669.01 264.53,685.76 254.5,701 C247.84,711.13 240.07,721.25 232.03,730.88 " fill="none" id="Ascensor-Persona" style="stroke:#181818;stroke-width:1.0;"/><text fill="#000000" font-family="sans-serif" font-size="13" lengthAdjust="spacing" textLength="64" x="265.5" y="696.897">transporta</text><text fill="#000000" font-family="sans-serif" font-size="13" lengthAdjust="spacing" textLength="7" x="272.4014" y="673.4959">1</text><text fill="#000000" font-family="sans-serif" font-size="13" lengthAdjust="spacing" textLength="20" x="218.0665" y="719.1967">0..*</text></g><!--SRC=[ZPD1J_Cm38Rl-HNMJWM-8hZsW8JqSGDf0l43lDIRBANnvAIx8FuxQTDcdIY8KoldjVFwiMCTXW3lda-aWLjiuSC0rE2bsoary1QL_S5y6cD7vLFBUxOiwx8nr7UaidNe8uO6sCSKlW7di4Dz39Py4AsEu_cZZJsw1hBwge6JS3lAPHV9asub3BVv2gV41kOILtFQgEyaDL2gVrV_WtpZsbrUuj0KwhEZ0xPuDfcOY1zoyiyooOhViwQMNkd08Qgyo8ax9XzbtUoOMJXc5pF54TdCgWQBHxJ3C7Ae9CtL_fOsXDOmZ_RPxsLmNm1VuYpTJKYgPUkuKzPjJve6V75WIHLNJ_9ugfzde9aYwWBZtoVsdq9aBzLtp7bm4x0sonQTrX2PkgCyXOZUCfxtDOXBO69QsRG5iLTSQokG8plWGvqjh9jEXfPlR7E_WRfEdzlRwytvJJK3zsJ8aocnI-cqDWtygYfxaWkgE3HJvYoyo-KcF0sWsv4Uq9JKduHfHZuS9Q4mSp39Ygz0qFLq8aWJL887ymK0]--></g></svg>