<?xml version="1.0" encoding="us-ascii" standalone="no"?><svg xmlns="http://www.w3.org/2000/svg" xmlns:xlink="http://www.w3.org/1999/xlink" contentStyleType="text/css" height="599px" preserveAspectRatio="none" style="width:735px;height:599px;background:#FFFFFF;" version="1.1" viewBox="0 0 735 599" width="735px" zoomAndPan="magnify"><defs/><g><!--cluster Sistema de Ascensores--><g id="cluster_Sistema de Ascensores"><rect fill="none" height="491" rx="2.5" ry="2.5" style="stroke:#181818;stroke-width:1.0;" width="622" x="107" y="7"/><text fill="#000000" font-family="sans-serif" font-size="14" font-weight="bold" lengthAdjust="spacing" textLength="158" x="339" y="23.9659">Sistema de Ascensores</text></g><g id="elem_UC1"><ellipse cx="243.7318" cy="63.9464" fill="#F1F1F1" rx="82.7318" ry="18.9464" style="stroke:#181818;stroke-width:0.5;"/><text fill="#000000" font-family="sans-serif" font-size="14" lengthAdjust="spacing" textLength="111" x="185.2318" y="68.6793">Llegar al Edificio</text></g><g id="elem_UC2"><ellipse cx="243.7318" cy="136.9464" fill="#F1F1F1" rx="82.7318" ry="18.9464" style="stroke:#181818;stroke-width:0.5;"/><text fill="#000000" font-family="sans-serif" font-size="14" lengthAdjust="spacing" textLength="111" x="185.2318" y="141.6793">Llamar Ascensor</text></g><g id="elem_UC3"><ellipse cx="243.2649" cy="214.753" fill="#F1F1F1" rx="106.7649" ry="23.753" style="stroke:#181818;stroke-width:0.5;"/><text fill="#000000" font-family="sans-serif" font-size="14" lengthAdjust="spacing" textLength="171" x="154.7649" y="219.4859">Usar Ascensor para Subir</text></g><g id="elem_UC4"><ellipse cx="243.7207" cy="301.0441" fill="#F1F1F1" rx="120.7207" ry="26.5441" style="stroke:#181818;stroke-width:0.5;"/><text fill="#000000" font-family="sans-serif" font-size="14" lengthAdjust="spacing" textLength="203" x="140.0189" y="305.4692">Permanecer en Planta Destino</text></g><g id="elem_UC5"><ellipse cx="243.3388" cy="386.1678" fill="#F1F1F1" rx="106.3388" ry="23.6678" style="stroke:#181818;stroke-width:0.5;"/><text fill="#000000" font-family="sans-serif" font-size="14" lengthAdjust="spacing" textLength="170" x="155.3388" y="390.9007">Usar Ascensor para Bajar</text></g><g id="elem_UC6"><ellipse cx="243.6378" cy="463.2276" fill="#F1F1F1" rx="81.6378" ry="18.7276" style="stroke:#181818;stroke-width:0.5;"/><text fill="#000000" font-family="sans-serif" font-size="14" lengthAdjust="spacing" textLength="108" x="186.6378" y="467.9605">Salir del Edificio</text></g><g id="elem_UC7"><ellipse cx="597.9772" cy="309.8954" fill="#F1F1F1" rx="114.9772" ry="25.3954" style="stroke:#181818;stroke-width:0.5;"/><text fill="#000000" font-family="sans-serif" font-size="14" lengthAdjust="spacing" textLength="190" x="499.9772" y="314.6284">Asignar Ascensor a Llamada</text></g><!--entity Persona--><g id="elem_Persona"><ellipse cx="33" cy="239" fill="#F1F1F1" rx="8" ry="8" style="stroke:#181818;stroke-width:0.5;"/><path d="M33,247 L33,274 M20,255 L46,255 M33,274 L20,289 M33,274 L46,289 " fill="none" style="stroke:#181818;stroke-width:0.5;"/><text fill="#000000" font-family="sans-serif" font-size="14" lengthAdjust="spacing" textLength="54" x="6" y="305.4659">Persona</text></g><!--entity Sistema--><g id="elem_Sistema"><ellipse cx="243.5" cy="525" fill="#F1F1F1" rx="8" ry="8" style="stroke:#181818;stroke-width:0.5;"/><path d="M243.5,533 L243.5,560 M230.5,541 L256.5,541 M243.5,560 L230.5,575 M243.5,560 L256.5,575 " fill="none" style="stroke:#181818;stroke-width:0.5;"/><text fill="#000000" font-family="sans-serif" font-size="14" lengthAdjust="spacing" textLength="127" x="180" y="591.4659">Sistema de Control</text></g><!--link Persona to UC1--><g id="link_Persona_UC1"><path d="M38.61,230.37 C45.25,191.57 61.18,133.55 99,100 C117.06,83.98 135.3496,76.1567 158.6696,71.0367 " fill="none" id="Persona-to-UC1" style="stroke:#181818;stroke-width:1.0;"/><polygon fill="#181818" points="164.53,69.75,154.8816,67.7731,159.6463,70.8222,156.5972,75.587,164.53,69.75" style="stroke:#181818;stroke-width:1.0;"/></g><!--link Persona to UC2--><g id="link_Persona_UC2"><path d="M51.89,230.28 C62.81,210.3 78.61,187.35 99,173 C119.27,158.74 138.7892,151.3951 162.5492,146.1851 " fill="none" id="Persona-to-UC2" style="stroke:#181818;stroke-width:1.0;"/><polygon fill="#181818" points="168.41,144.9,158.7621,142.9205,163.526,145.9709,160.4756,150.7349,168.41,144.9" style="stroke:#181818;stroke-width:1.0;"/></g><!--link Persona to UC3--><g id="link_Persona_UC3"><path d="M60.13,261.77 C69.52,258.89 80.21,255.7 90,253 C115.77,245.88 138.3344,240.0762 163.5644,233.8562 " fill="none" id="Persona-to-UC3" style="stroke:#181818;stroke-width:1.0;"/><polygon fill="#181818" points="169.39,232.42,159.6942,230.6906,164.5354,233.6168,161.6091,238.458,169.39,232.42" style="stroke:#181818;stroke-width:1.0;"/></g><!--link Persona to UC4--><g id="link_Persona_UC4"><path d="M60.41,273.93 C81.56,277.07 106.6953,280.8072 137.2153,285.3472 " fill="none" id="Persona-to-UC4" style="stroke:#181818;stroke-width:1.0;"/><polygon fill="#181818" points="143.15,286.23,134.8365,280.9493,138.2044,285.4943,133.6594,288.8622,143.15,286.23" style="stroke:#181818;stroke-width:1.0;"/></g><!--link Persona to UC5--><g id="link_Persona_UC5"><path d="M60.18,308.51 C70.85,321.73 84.18,335.55 99,345 C117.35,356.7 133.3461,363.4635 154.3061,369.5235 " fill="none" id="Persona-to-UC5" style="stroke:#181818;stroke-width:1.0;"/><polygon fill="#181818" points="160.07,371.19,152.5351,364.8477,155.2667,369.8013,150.3131,372.5329,160.07,371.19" style="stroke:#181818;stroke-width:1.0;"/></g><!--link Persona to UC6--><g id="link_Persona_UC6"><path d="M40.13,309.73 C47.75,345.54 64.27,397.03 99,427 C117.57,443.03 136.3837,450.8505 160.0437,455.9305 " fill="none" id="Persona-to-UC6" style="stroke:#181818;stroke-width:1.0;"/><polygon fill="#181818" points="165.91,457.19,157.9502,451.3898,161.0214,456.1404,156.2708,459.2116,165.91,457.19" style="stroke:#181818;stroke-width:1.0;"/></g><!--link Sistema to UC7--><g id="link_Sistema_UC7"><path d="M307.04,528.94 C325.84,519.94 346.18,509.3 364,498 C444.1,447.18 523.9826,377.3194 565.7926,339.0794 " fill="none" id="Sistema-to-UC7" style="stroke:#181818;stroke-width:1.0;"/><polygon fill="#181818" points="570.22,335.03,560.8792,338.1525,566.5305,338.4045,566.2784,344.0557,570.22,335.03" style="stroke:#181818;stroke-width:1.0;"/></g><!--link UC2 to UC7--><g id="link_UC2_UC7"><path d="M300.22,150.8 C320.66,156.64 343.75,164.15 364,173 C437.74,205.23 512.2689,252.415 556.7189,282.265 " fill="none" id="UC2-to-UC7" style="stroke:#181818;stroke-width:1.0;stroke-dasharray:7.0,7.0;"/><polygon fill="#181818" points="561.7,285.61,556.4584,277.2718,557.5491,282.8225,551.9984,283.9132,561.7,285.61" style="stroke:#181818;stroke-width:1.0;"/><text fill="#000000" font-family="sans-serif" font-size="13" lengthAdjust="spacing" textLength="57" x="395" y="184.897">&#171;include&#187;</text></g><!--link UC3 to UC7--><g id="link_UC3_UC7"><path d="M312.88,233.43 C373.65,249.81 456.4169,272.108 518.4669,288.838 " fill="none" id="UC3-to-UC7" style="stroke:#181818;stroke-width:1.0;stroke-dasharray:7.0,7.0;"/><polygon fill="#181818" points="524.26,290.4,516.6116,284.195,519.4324,289.0984,514.529,291.9192,524.26,290.4" style="stroke:#181818;stroke-width:1.0;"/><text fill="#000000" font-family="sans-serif" font-size="13" lengthAdjust="spacing" textLength="57" x="395" y="252.897">&#171;include&#187;</text></g><!--link UC5 to UC7--><g id="link_UC5_UC7"><path d="M320.55,369.6 C377.83,357.25 450.3849,341.6152 509.0749,328.9552 " fill="none" id="UC5-to-UC7" style="stroke:#181818;stroke-width:1.0;stroke-dasharray:7.0,7.0;"/><polygon fill="#181818" points="514.94,327.69,505.2989,325.6777,510.0524,328.7443,506.9858,333.4978,514.94,327.69" style="stroke:#181818;stroke-width:1.0;"/><text fill="#000000" font-family="sans-serif" font-size="13" lengthAdjust="spacing" textLength="57" x="395" y="337.897">&#171;include&#187;</text></g><!--SRC=[XP51QiCm44NtEiN7-mGQnmcKO4ZJxhe8c1nWAa-SAR9K97bLUlUghWssI-ZoQPw- -2F3ruZeuAMvHTJYMKTnLf6EpkFCFZXB0sMLXCWjeMQSd8tUcGmKC1mhzNEPR6DufXw3PXkSvv3XKm5TO4qXEQ-66_8WWvTQhgB5zN6NqyFSeZPPOygWRARA9Km4V90dLDsRZ6u-TLEbbYnhzc2Bio4R2SySejZn-Uq_sK_qJcDsCNKhCk9JvJ-5TbFh6AInqr12tx6cmTwhBwM6rMErAlkDp7cpu7p1smKN2zufDVxGxy5UgPIAzRe7FE9m4AjDLtDPfab-TrBScNm3]--></g></svg>